<?xml version="1.0" encoding="utf-8"?>
<!-- Generator: Adobe Illustrator 28.0.0, SVG Export Plug-In . SVG Version: 6.00 Build 0)  -->
<svg version="1.1" id="Layer_1" xmlns="http://www.w3.org/2000/svg" xmlns:xlink="http://www.w3.org/1999/xlink" x="0px" y="0px"
	 viewBox="0 0 100 100" style="enable-background:new 0 0 100 100;" xml:space="preserve">
<style type="text/css">
	.st0{fill:#554D1F;}
	.st1{fill:#DFE4F3;}
	.st2{fill:#333333;}
	.st3{fill:#C8B12E;}
	.st4{fill:none;stroke:#333333;stroke-width:1.25;stroke-linecap:round;stroke-miterlimit:10;}
	.st5{fill:#C8B12E;stroke:#000000;stroke-miterlimit:10;}
	.st6{fill:#C8B12E;stroke:#000000;stroke-width:0.5;stroke-miterlimit:10;}
</style>
<path class="st0" d="M109.39,55.67"/>
<path class="st1" d="M112.04,92.43"/>
<path class="st1" d="M65.9,85.6"/>
<path class="st1" d="M136.28,64.58"/>
<path class="st2" d="M88.06,103.72"/>
<path class="st3" d="M77.58,111.25"/>
<g>
	<path d="M12.99,84.91c-6.75-11.37,5.03-19.29,13.84-61.53c0.9-4.32,2.94-14.63,11.28-20.15c1.16-0.77,5.14-3.4,9.94-3.22
		c9.74,0.36,16.57,12.05,21.22,20.42c19.79,35.55,29.69,53.33,25.93,61.26C84.42,104.42,25.85,106.57,12.99,84.91z"/>
	<path class="st3" d="M55.44,14.52c2.48,0.19,4.4,3.67,3.8,6.57c-0.58,2.8-3.57,5.23-5.92,4.51c-2.38-0.73-3.22-4.41-2.42-6.99
		C51.49,16.67,53.32,14.36,55.44,14.52z"/>
	<path class="st2" d="M49.72,94.86c-4.88,0.05-19.58-0.39-28.45-10.49c-3.04-3.46-3.66-6.08-3.79-6.7
		c-2-9.19,7.36-18.64,13.78-22.88c14.28-9.44,30.84-4.2,34.52-3.03c13.08,4.14,19.07,13.59,20.23,15.55
		c0.59,1.01,1.86,3.14,2.15,6.2c0.31,3.26-0.67,5.78-1.14,6.95c-1.89,4.73-5.43,7.39-7.08,8.6C69.93,96.38,54.07,94.81,49.72,94.86z
		"/>
	<path class="st3" d="M35.35,15.84c2.24-1.08,5.65,0.98,6.57,3.79c0.9,2.72-0.48,6.32-2.87,6.87c-2.43,0.56-5-2.21-5.6-4.84
		C33.01,19.68,33.44,16.76,35.35,15.84z"/>
	
		<ellipse transform="matrix(0.1219 -0.9925 0.9925 0.1219 26.174 73.6048)" class="st2" cx="54.68" cy="22.01" rx="4.47" ry="2.32"/>
	
		<ellipse transform="matrix(0.9659 -0.2588 0.2588 0.9659 -4.7777 10.6982)" class="st2" cx="38.24" cy="23.49" rx="2.53" ry="4.9"/>
	<path class="st3" d="M40.92,26.34c-0.55,0.09-3.13,0.05-6.14,1.19c-1.98,0.75-4.03,1.53-4.23,2.73c-0.4,2.35,6.27,6.49,12.64,7.59
		C55.41,39.95,68.77,32,68.1,28.36C67.4,24.53,51.01,24.75,40.92,26.34z"/>
	<path class="st4" d="M34.86,30.48c2.47,1.26,9.62,4.5,18.38,2.63c4-0.85,7.07-2.5,9.1-3.85"/>
</g>
<path class="st3" d="M116,106.22"/>
<path class="st3" d="M118.67,81.11"/>
<path class="st3" d="M106.44,68.78"/>
<path class="st3" d="M133.67,72.78"/>
<path class="st3" d="M124,91.67"/>
<path class="st3" d="M127.17,59.83"/>
<path class="st3" d="M162,79.33"/>
<path class="st3" d="M101.58,79.83"/>
<path class="st3" d="M108.58,68.83"/>
<path class="st5" d="M110.5,68"/>
<path class="st6" d="M112.67,52.17"/>
<path class="st6" d="M118.89,42"/>
</svg>
